<?xml version="1.0" encoding="UTF-8" standalone="no"?>
<!-- Created with Inkscape (http://www.inkscape.org/) -->

<svg
   width="350.83945mm"
   height="350.83945mm"
   viewBox="0 0 350.83945 350.83945"
   version="1.1"
   id="svg1"
   xml:space="preserve"
   xmlns:xlink="http://www.w3.org/1999/xlink"
   xmlns="http://www.w3.org/2000/svg"
   xmlns:svg="http://www.w3.org/2000/svg"><defs
     id="defs1"><linearGradient
       id="linearGradient6"><stop
         style="stop-color:#51525c;stop-opacity:1;"
         offset="0"
         id="stop6" /><stop
         style="stop-color:#111216;stop-opacity:1;"
         offset="1"
         id="stop7" /></linearGradient><linearGradient
       xlink:href="#linearGradient6"
       id="linearGradient7"
       x1="285.27225"
       y1="48.285191"
       x2="345.60776"
       y2="109.31422"
       gradientUnits="userSpaceOnUse"
       gradientTransform="matrix(5.2696696,0,0,5.2696696,-1495.9814,-243.48325)" /><filter
       style="color-interpolation-filters:sRGB"
       id="filter10"
       x="-0.41002711"
       y="-0.31550935"
       width="1.8200542"
       height="1.6310187"><feGaussianBlur
         stdDeviation="33.216084"
         id="feGaussianBlur10" /></filter></defs><rect
     style="display:inline;opacity:1;fill:url(#linearGradient7);stroke:none;stroke-width:25.1732;stroke-linecap:square;stroke-dasharray:none"
     id="rect7"
     width="350.83945"
     height="350.83945"
     x="8.060303e-07"
     y="6.9311523e-07" /><g
     id="layer1"
     transform="translate(26.808008,-53.139767)"><g
       id="g8"
       style="display:inline;opacity:0.496528;filter:url(#filter10)"><path
         id="path7"
         style="opacity:1;fill:#e5e4e3;fill-opacity:1;stroke-width:3.08099;stroke-linecap:square"
         d="m 148.62842,106.51026 a 4.8267046,4.8267046 0 0 0 -3.07009,1.09348 l -89.897877,73.68129 a 12.787935,12.787935 0 0 0 -4.681368,9.89035 v 52.79006 a 3.5543832,3.5543832 0 0 0 3.554305,3.5543 h 14.615646 l 0.07596,-50.8527 a 3.4511718,3.4511718 0 0 1 1.246436,-2.64997 l 78.348188,-65.06166 78.3544,64.87201 a 4.274462,4.274462 0 0 1 1.54822,3.34191 l -0.58239,50.35041 h 14.97118 a 2.2911756,2.2911756 0 0 0 2.29081,-2.29081 v -57.92411 a 4.6378625,4.6378625 0 0 0 -1.68206,-3.57395 l -92.02591,-76.11318 a 4.8267046,4.8267046 0 0 0 -3.06545,-1.10743 z m -17.78496,66.71583 v 14.86007 h 14.49059 v -14.86007 z m 21.04368,0 v 14.86007 h 14.49059 v -14.86007 z m -21.04368,21.50566 v 14.85956 h 14.49059 v -14.85956 z m 21.04368,0 v 14.85956 h 14.49059 v -14.85956 z m -99.818715,66.01199 c 3.783304,55.41156 56.339945,70.70331 94.478985,97.8545 1.08416,0.77181 2.8218,0.77084 3.90571,-10e-4 37.69066,-26.8406 89.43643,-40.57913 94.48002,-97.85346 H 229.4917 c -1.10988,0 -2.0284,0.90028 -2.11563,2.0066 -2.31853,29.40719 -37.81322,54.26118 -78.87529,77.3684 -45.17135,-24.6703 -76.830326,-50.05187 -79.29335,-76.96997 -0.121245,-1.32507 -1.220427,-2.40503 -2.551265,-2.40503 z" /><path
         id="path8"
         style="fill:#5a7a57;fill-opacity:1;stroke:none"
         d="m 84.498486,225.83476 v 17.9896 9.52397 c 0.01411,8.3739 2.437357,17.7212 6.458521,25.04395 8.483242,15.44268 26.525443,22.27501 40.454893,31.70711 3.28748,2.22575 7.50627,6.25086 10.16941,9.21029 1.3545,1.50265 2.39484,3.28014 3.93981,4.58525 v -26.45472 c 0,-9.02646 0.3002,-15.73207 -1.92908,-24.69151 -1.89065,-7.59788 -5.65112,-14.95598 -10.38128,-21.16409 -2.90653,-3.81305 -6.52904,-7.04393 -10.26449,-10.01747 -5.20988,-4.14462 -11.18141,-7.18891 -17.2837,-9.78855 -5.41093,-2.30335 -15.379252,-5.47469 -21.164084,-5.94383 z m 127.740004,0 c -5.78483,0.46914 -15.75315,3.64048 -21.16408,5.94383 -6.10229,2.59964 -12.07382,5.64393 -17.2837,9.78855 -3.73545,2.97354 -7.35796,6.20442 -10.26449,10.01747 -4.73016,6.20811 -8.49063,13.56621 -10.38128,21.16409 -2.22928,8.95944 -1.92908,15.66505 -1.92908,24.69151 v 26.45472 c 1.54497,-1.30511 2.58531,-3.0826 3.93981,-4.58525 2.66314,-2.95943 6.88193,-6.98454 10.16941,-9.21029 13.92945,-9.4321 31.97165,-16.26443 40.45489,-31.70711 4.02116,-7.32275 6.44441,-16.67005 6.45852,-25.04395 v -9.52397 z"><title
           id="title7">Selection</title></path></g><g
       id="g10"><path
         id="path9"
         style="opacity:1;fill:#e5e4e3;fill-opacity:1;stroke-width:3.08099;stroke-linecap:square"
         d="m 148.62842,106.51026 a 4.8267046,4.8267046 0 0 0 -3.07009,1.09348 l -89.897877,73.68129 a 12.787935,12.787935 0 0 0 -4.681368,9.89035 v 52.79006 a 3.5543832,3.5543832 0 0 0 3.554305,3.5543 h 14.615646 l 0.07596,-50.8527 a 3.4511718,3.4511718 0 0 1 1.246436,-2.64997 l 78.348188,-65.06166 78.3544,64.87201 a 4.274462,4.274462 0 0 1 1.54822,3.34191 l -0.58239,50.35041 h 14.97118 a 2.2911756,2.2911756 0 0 0 2.29081,-2.29081 v -57.92411 a 4.6378625,4.6378625 0 0 0 -1.68206,-3.57395 l -92.02591,-76.11318 a 4.8267046,4.8267046 0 0 0 -3.06545,-1.10743 z m -17.78496,66.71583 v 14.86007 h 14.49059 v -14.86007 z m 21.04368,0 v 14.86007 h 14.49059 v -14.86007 z m -21.04368,21.50566 v 14.85956 h 14.49059 v -14.85956 z m 21.04368,0 v 14.85956 h 14.49059 v -14.85956 z m -99.818715,66.01199 c 3.783304,55.41156 56.339945,70.70331 94.478985,97.8545 1.08416,0.77181 2.8218,0.77084 3.90571,-10e-4 37.69066,-26.8406 89.43643,-40.57913 94.48002,-97.85346 H 229.4917 c -1.10988,0 -2.0284,0.90028 -2.11563,2.0066 -2.31853,29.40719 -37.81322,54.26118 -78.87529,77.3684 -45.17135,-24.6703 -76.830326,-50.05187 -79.29335,-76.96997 -0.121245,-1.32507 -1.220427,-2.40503 -2.551265,-2.40503 z" /><path
         id="path10"
         style="fill:#5a7a57;fill-opacity:1;stroke:none"
         d="m 84.498486,225.83476 v 17.9896 9.52397 c 0.01411,8.3739 2.437357,17.7212 6.458521,25.04395 8.483242,15.44268 26.525443,22.27501 40.454893,31.70711 3.28748,2.22575 7.50627,6.25086 10.16941,9.21029 1.3545,1.50265 2.39484,3.28014 3.93981,4.58525 v -26.45472 c 0,-9.02646 0.3002,-15.73207 -1.92908,-24.69151 -1.89065,-7.59788 -5.65112,-14.95598 -10.38128,-21.16409 -2.90653,-3.81305 -6.52904,-7.04393 -10.26449,-10.01747 -5.20988,-4.14462 -11.18141,-7.18891 -17.2837,-9.78855 -5.41093,-2.30335 -15.379252,-5.47469 -21.164084,-5.94383 z m 127.740004,0 c -5.78483,0.46914 -15.75315,3.64048 -21.16408,5.94383 -6.10229,2.59964 -12.07382,5.64393 -17.2837,9.78855 -3.73545,2.97354 -7.35796,6.20442 -10.26449,10.01747 -4.73016,6.20811 -8.49063,13.56621 -10.38128,21.16409 -2.22928,8.95944 -1.92908,15.66505 -1.92908,24.69151 v 26.45472 c 1.54497,-1.30511 2.58531,-3.0826 3.93981,-4.58525 2.66314,-2.95943 6.88193,-6.98454 10.16941,-9.21029 13.92945,-9.4321 31.97165,-16.26443 40.45489,-31.70711 4.02116,-7.32275 6.44441,-16.67005 6.45852,-25.04395 v -9.52397 z"><title
           id="title9">Selection</title></path></g></g></svg>
